<svg xmlns="http://www.w3.org/2000/svg" xmlns:xlink="http://www.w3.org/1999/xlink" viewBox="0 0 2048 549.13"><defs><style>.a{fill:none;}.b{clip-path:url(#a);}.c{fill:url(#b);}.d{fill:#492da4;}.e{fill:#3a2388;}.f{fill:#603cc0;}.g{fill:#150e4c;}.h{fill:#27215b;}.i{fill:#140d4b;}.j{fill:#1c1651;}.k{fill:#971f57;}.l{fill:#9c2a5f;}.m{fill:gray;}</style><clipPath id="a"><path class="a" d="M687,273h56.83c4.61,0,8.7,3.33,8.7,8.19a8.06,8.06,0,0,1-4.86,7.42,3.47,3.47,0,0,0-1.79,3.33v34a8,8,0,0,1-1.79,5.38c-17.41,22.53-41.47,33.28-69.89,33.28-50.17,0-90.62-41.22-90.62-91.13a90.47,90.47,0,0,1,90.62-91.13,91.81,91.81,0,0,1,56.58,19.46,7.8,7.8,0,0,1,3.33,6.66c0,4.61-3.58,8.7-8.19,8.7a9.53,9.53,0,0,1-5.12-1.79,72.17,72.17,0,0,0-46.59-16.64c-41.21,0-74.24,33.54-74.24,74.75,0,41,33.28,74.75,74.24,74.75,22.78,0,41-7.68,55.3-25.09V294.27c0-1.54,0-3.58,1.28-4.86H687A8.19,8.19,0,1,1,687,273ZM807,239.23a20.11,20.11,0,0,1,.77,5.38c6.4-10,18.43-15.87,31-15.87a67.76,67.76,0,0,1,23.3,4.1,8.18,8.18,0,0,1,5.63,8.19c0,6.14-5.89,9.47-11.26,7.68a58.16,58.16,0,0,0-17.66-3.07c-14.59,0-30,7.68-30,23.81v75.77c0,9.73-4.86,17.92-14.34,17.92-4.61,0-8.7-3.33-8.7-8.19a8.06,8.06,0,0,1,4.86-7.42,3.47,3.47,0,0,0,1.79-3.33V249a3.47,3.47,0,0,0-1.79-3.33,8.06,8.06,0,0,1-4.86-7.42c0-4.86,4.1-8.19,8.7-8.19C800.61,230,805,233.85,807,239.23Zm90.37,106V249a3.47,3.47,0,0,0-1.79-3.33,8.06,8.06,0,0,1-4.86-7.42c0-4.86,4.1-8.19,8.7-8.19,9.47,0,14.34,8.19,14.34,17.92v96.25a3.47,3.47,0,0,0,1.79,3.33,8.06,8.06,0,0,1,4.86,7.42c0,4.86-4.1,8.19-8.7,8.19C902.25,363.13,897.38,354.94,897.38,345.21Zm-6.14-157.69A11.74,11.74,0,0,1,903,175.74c6.4,0,12,5.12,12,11.52A11.9,11.9,0,0,1,891.24,187.52ZM953.7,354.94a8.06,8.06,0,0,1,4.86-7.42,3.47,3.47,0,0,0,1.79-3.33V249a3.47,3.47,0,0,0-1.79-3.33,8.06,8.06,0,0,1-4.86-7.42c0-4.86,4.1-8.19,8.7-8.19,9,0,13.82,7.68,14.34,16.9v1.79c8.7-13.31,22.27-18.69,36.1-18.69,15.87,0,34,4.86,42.75,22.53,9-15.1,25.09-22.53,41.73-22.53,24.06,0,48.38,15.62,48.38,48.9v65.28a3.47,3.47,0,0,0,1.79,3.33,8.06,8.06,0,0,1,4.86,7.42c0,4.86-4.1,8.19-8.7,8.19-9.47,0-14.33-8.19-14.33-17.92V278.65c0-22.78-17.66-32.26-32.51-32.26-21.76,0-35.58,12.29-35.58,34.56v74a8.25,8.25,0,0,1-8.19,8.19,8.42,8.42,0,0,1-8.19-8.19V278.65c0-24.32-17.66-32.26-32.51-32.26-21.25,0-35.58,13.82-35.58,35.07v63.74c0,9.73-4.86,17.92-14.34,17.92C957.8,363.13,953.7,359.8,953.7,354.94Zm228.09-58.62c0-37.12,30.46-67.58,67.84-67.58,37.63,0,68.1,30.46,68.1,67.58A68,68,0,1,1,1181.79,296.31Zm16.13,0a51.84,51.84,0,0,0,103.68,0c0-28.16-23.3-51.2-52-51.2C1221.47,245.11,1197.92,268.15,1197.92,296.31Zm154.62,48.9V249a3.47,3.47,0,0,0-1.79-3.33,8.06,8.06,0,0,1-4.86-7.42c0-4.86,4.1-8.19,8.7-8.19,9.47,0,14.34,8.19,14.34,17.92v96.25a3.47,3.47,0,0,0,1.79,3.33,8.06,8.06,0,0,1,4.86,7.42c0,4.86-4.1,8.19-8.7,8.19C1357.41,363.13,1352.54,354.94,1352.54,345.21Zm-6.14-157.69a11.74,11.74,0,0,1,11.78-11.78c6.4,0,12,5.12,12,11.52A11.9,11.9,0,0,1,1346.4,187.52Zm83.71,51.71a20.11,20.11,0,0,1,.77,5.38c6.4-10,18.43-15.87,31-15.87a67.76,67.76,0,0,1,23.3,4.1,8.18,8.18,0,0,1,5.63,8.19c0,6.14-5.89,9.47-11.26,7.68a58.16,58.16,0,0,0-17.66-3.07c-14.59,0-30,7.68-30,23.81v75.77c0,9.73-4.86,17.92-14.34,17.92-4.61,0-8.7-3.33-8.7-8.19a8.06,8.06,0,0,1,4.86-7.42,3.47,3.47,0,0,0,1.79-3.33V249a3.47,3.47,0,0,0-1.79-3.33,8.06,8.06,0,0,1-4.86-7.42c0-4.86,4.1-8.19,8.7-8.19C1423.71,230,1428.06,233.85,1430.11,239.23Zm97.79,65.54c3.33,22.53,21.76,43.26,45.82,43.26,17.92,0,30.72-5.38,39.17-13.82a8.89,8.89,0,0,1,6.4-2.56c4.1,0,8.19,3.33,8.19,7.68a8.11,8.11,0,0,1-2.3,5.89c-11.52,12.29-28.16,19.2-51.46,19.2-36.86,0-62.46-31.74-62.46-68.1,0-34.82,25.6-67.58,62.46-67.58,37.12,0,63,32.51,63,67.58a8.74,8.74,0,0,1-8.7,8.45H1527.9Zm92.16-16.38c-3.07-22.78-22.27-43.26-46.34-43.26-23.55,0-43.26,20.48-45.82,43.26h92.16Zm50.69,61.7A13,13,0,0,1,1683.81,337a13.11,13.11,0,0,1,13.06,13.06,13,13,0,0,1-13.06,13.06A12.79,12.79,0,0,1,1670.75,350.07Zm91.39-111.87a8.06,8.06,0,0,1-4.86,7.42,3.47,3.47,0,0,0-1.79,3.33V373.11c0,22-12.54,33.54-33,33.54-4.61,0-8.45-3.07-8.45-7.68a7.12,7.12,0,0,1,7.42-7.42H1724c9.73,0,14.85-9,15.1-18.94V247.93c0-9.73,4.86-17.92,14.34-17.92C1758,230,1762.14,233.34,1762.14,238.2Zm-25.09-50.43a12.14,12.14,0,0,1,11.78-12,12,12,0,1,1,0,24.06A12,12,0,0,1,1737.05,187.77Zm97.53,176.64c-12.54,0-27.39-5.12-37.89-12a8.17,8.17,0,0,1-3.58-6.91c0-5.89,6.91-10.5,14.08-5.63,7.42,5.38,17.66,8.19,28.42,8.19,15.87,0,30.46-7.68,30.46-18.18,0-13.06-16.13-18.69-30.72-24.58-16.9-6.66-42.75-17.66-42.75-40.7,0-20.48,21.25-35.84,45.06-35.84,13.82,0,26.88,4.86,36.1,12.29a9.33,9.33,0,0,1,3.33,6.91c0,5.89-7.42,10.5-13.57,5.89a42.53,42.53,0,0,0-25.86-8.7c-15.36,0-28.67,9-28.67,19.71,0,12.29,18.18,19.2,30.46,24.06,18.94,7.68,43.26,19.46,43.26,41C1882.71,355.19,1854.55,364.41,1834.59,364.41Z"/></clipPath><linearGradient id="b" x1="431.58" y1="736.7" x2="1994.74" y2="736.7" gradientUnits="userSpaceOnUse"><stop offset="0" stop-color="#492da5"/><stop offset="0.26" stop-color="#77399f"/><stop offset="0.6" stop-color="#ae4699"/><stop offset="0.86" stop-color="#d04f95"/><stop offset="1" stop-color="#dd5293"/></linearGradient></defs><title>logo</title><g class="b"><rect class="c" x="431.58" y="-175.39" width="1563.16" height="1824.18"/></g><path class="d" d="M370.4,38.83h4.87c3.35,1.56,5.37,4.26,7.13,7.46q36.87,67.28,73.88,134.48,14.13,25.69,28.24,51.39c3.26,6,1,12.07-5.11,14-3.46,1.07-6.28-.29-9-2.25q-53.94-38.28-107.92-76.5c-5.68-4-5.62-4-10.67,1-1.48,1.44-1.72,2.52-.77,4.41q37.77,75.34,75.38,150.77a4.24,4.24,0,0,0,3.39,2.54c6.67,1.23,13.36,2.41,20,3.83,23.11,4.93,45.86,11.07,67.33,21.21a119.47,119.47,0,0,1,17.61,10.16c9.7,6.81,17.08,15.34,20.17,27.07V398c-1.77,3.8-2.81,7.9-5.18,11.46-6.61,9.94-16.07,16.46-26.33,22-19,10.16-39.37,16.38-60.17,21.37-46.79,11.22-94.4,15.9-142.36,17.7-1.33,0-2.82-.54-4,0.58H256.54c-0.54-.92-1.45-0.54-2.19-0.57-16.41-.52-32.79-1.54-49.15-3-31-2.7-61.77-7-92.07-14.16C91.53,448.29,70.3,442,50.6,431.46c-10.17-5.44-19.55-11.9-26.16-21.71C22,406.13,20.9,401.94,19.1,398V387.69a3.19,3.19,0,0,0,.65-0.91c2.43-9.72,8.5-16.88,16.13-22.94,10.51-8.36,22.52-14,34.93-18.75,22.87-8.81,46.63-14.27,70.68-18.61,2.29-.41,3.11-1.39,3.79-3.44q22.94-69.33,46-138.61a25.68,25.68,0,0,1,2.41-5.22Q218.57,138,243.4,96.68a14.64,14.64,0,0,1,7.17-6.2q44.69-19.07,89.31-38.31C350.07,47.78,360.22,43.28,370.4,38.83Z"/><path class="e" d="M547.57,390.74v4.87c-1.42,3-3.82,5.05-6.42,7Q521,418,500.85,433.54a14.58,14.58,0,0,1-6.24,2.94q-64.11,12.44-128.19,25C361,462.53,355.5,463,350.31,465h-5.48c-3.7-1.69-5.69-4.74-7.29-8.38q-17-38.56-34.12-77c-0.4-.9-0.5-2.18-1.58-2.46-3.3-.86-5-3.47-6.93-5.9V356a5.28,5.28,0,0,0,1.3-3.57c0.74-8.38,1.54-16.76,2.26-25.15q3.79-43.8,7.54-87.6c2.54-29.2,5.18-58.39,7.66-87.59a10.8,10.8,0,0,1,5.54-9.13c14.25-8.49,28.45-17.07,42.66-25.62h4.87a29.35,29.35,0,0,1,7,5.6q36.41,35.89,72.86,71.75a37.1,37.1,0,0,1,2.75,2.84,8.6,8.6,0,0,1,.25,10.94c-3.35,4.61-8.39,5.21-13.59,1.51q-39.78-28.27-79.52-56.62a5.21,5.21,0,0,0-5.29-.83c-4.41,1.49-8.9,2.75-13.39,3.94-1.89.5-2.39,1.07-1.52,3.06q36.5,83.78,72.84,167.63c0.75,1.74,1.71,2.11,3.4,2.08,6.29-.08,12.58,0,18.87-0.05a20.36,20.36,0,0,1,5.7.77q34.52,9.61,69,19.16a15.31,15.31,0,0,1,7.41,4.45q14.26,15.21,28.66,30.28A28.53,28.53,0,0,1,547.57,390.74Z"/><path class="f" d="M36.14,373.08c1.82-4.12,5.23-6,9.37-7.34,31.14-10.32,62.23-20.81,93.35-31.17a5.81,5.81,0,0,0,4-4q24-64.16,48.27-128.23c4.08-10.7,10.11-20.53,15.3-30.73,12.58-24.75,25.3-49.42,37.87-74.17a14.31,14.31,0,0,1,7.52-7Q310,65.34,368.1,40.06c7.55-3.27,14.44,1.16,13.88,8.9-0.27,3.77-2.69,5.9-5.78,7.61q-19.56,10.79-39.08,21.67Q304,96.59,270.88,114.88a8.23,8.23,0,0,0-4,4.62q-43.8,113.52-87.64,227a20.08,20.08,0,0,1-7,9.21q-51.43,38.69-102.73,77.54c-1.51,1.14-3.16,2.1-4.75,3.14H59.89a17,17,0,0,1-7-6.74c-2.16-3.41-4.61-6.63-6.79-10-3.31-5.17-7.4-9.83-9.93-15.5V373.08Z"/><path class="g" d="M433.72,336.55v4.26c-1.64,3.74-4.71,5.75-8.35,7.32a357,357,0,0,1-112.26,28.13c-2.82.24-5.77-.17-8.47,1.08H274.2c-1-.07-2-0.85-3,0H267.5c-0.23-.84-0.94-0.6-1.49-0.63a360.26,360.26,0,0,1-39.81-4.85c-27.08-4.92-53.34-12.54-78.5-23.81-3.53-1.58-6.45-3.62-8.06-7.23v-4.26a10.67,10.67,0,0,1,7.31-7.31h4.26a1.36,1.36,0,0,0,.35.45c41,18.82,84.17,28.21,129.16,29.3,35.58,0.86,70.29-4.78,104.22-15.29,12.73-3.94,25.32-8.3,37.2-14.45h4.26A10.67,10.67,0,0,1,433.72,336.55Z"/><path class="g" d="M375.27,38.83c3.34,1.55,5.37,4.24,7.12,7.43q50.82,92.63,101.76,185.18c3.24,5.89,2.15,11.12-2.87,13.88-3.88,2.13-7.32,1.11-10.73-1.31q-28.1-20-56.29-39.92-27.53-19.51-55-39.06c-1.76-1.26-2.8-1.45-4.44.28-4.85,5.09-4.94,5-1.85,11.18q36.5,73,72.93,146c1.2,2.41,2.7,3.28,5.21,3.72,27.15,4.83,53.94,11,79.43,21.84,11.79,5,23.06,11,32.4,20,5.65,5.46,9.92,11.74,11.44,19.62a1.81,1.81,0,0,0,.54.61V398c-0.78.21-.67,0.94-0.81,1.48-2,7.61-6.36,13.7-12,19-7.34,6.85-15.88,11.86-24.88,16.12-23.31,11-48.06,17.44-73.21,22.47-40.85,8.17-82.19,12-123.78,13.45-0.71,0-1.66-.47-2.13.57H254.72c-0.47-1-1.41-.56-2.13-0.59-15.81-.61-31.59-1.56-47.35-2.94-31-2.71-61.8-7-92.12-14.17C91.52,448.29,70.29,442,50.6,431.46,40.43,426,31,419.56,24.43,409.74,22,406.12,20.9,401.93,19.1,398V387.69c1.89-4,3-8.27,5.5-12,6.64-9.66,15.93-16.08,26-21.46,20.53-11,42.69-17.34,65.22-22.55,8.58-2,17.23-3.69,25.89-5.28a3.82,3.82,0,0,0,3.45-3c14.53-43.89,29.17-87.74,43.62-131.65a90.52,90.52,0,0,1,8.69-19q23.05-37.9,45.81-76a15.07,15.07,0,0,1,7.37-6.4q59.44-25.4,118.8-51a5.93,5.93,0,0,0,.94-0.63h4.87ZM448,205.46l0.82,0.6a0.78,0.78,0,0,0-.28-1.18c-0.24-.55-0.44-1.13-0.73-1.66q-38.84-70.66-77.62-141.34c-1.2-2.19-2.2-1.91-4-1.14Q313.48,83.4,260.75,106a7.2,7.2,0,0,0-3.5,3.13q-23.55,39.19-47.19,78.33a21.47,21.47,0,0,0-2,4.4q-4.67,14.12-9.35,28.24-19.17,57.74-38.32,115.49c-1.41,4.27-4,6.88-8.45,7.68-7.68,1.36-15.36,2.69-23,4.3-22,4.65-43.74,10.34-64.18,20C56,371.72,47.6,376.39,41.26,384c-5.15,6.15-5.11,11.59-.06,17.79a50.07,50.07,0,0,0,13.61,11.08c16,9.51,33.48,15.25,51.32,20,47.1,12.44,95.25,17.36,143.75,19.33a899.35,899.35,0,0,0,131-4.06c27-2.85,53.85-6.95,80.25-13.51,18.3-4.55,36.28-10.05,53.06-18.87a69.14,69.14,0,0,0,15.72-10.83c8.72-8.28,8.76-15.58.12-23.84a52.31,52.31,0,0,0-6.87-5.52c-12.47-8.42-26.36-13.69-40.56-18.23a416.41,416.41,0,0,0-60.9-14.06c-4.08-.66-7.09-2.42-9-6.28Q371.9,255.16,331,173.46c-2.39-4.78-1.8-8.3,2-12.13q7.6-7.68,15.28-15.29c4.65-4.63,8.67-5,14-1.16q12.66,9,25.31,17.93Z"/><path class="h" d="M285.77,324.38h4.87Q308,333,325.29,341.55c2,1,4.09,1.83,5.08,4.07-5.81,3.3-11.76,6.36-17.2,10.28a4,4,0,0,1-.54.08q-11.61-5.87-23.22-11.74a2.93,2.93,0,0,0-2.87.21l-23.29,11.65a4.86,4.86,0,0,0-.55,0l-17.24-9.43c0.81-2.56,2.92-3.72,5.12-4.81Z"/><path class="i" d="M313.17,355.9c5.44-3.92,11.39-7,17.2-10.28,1.16,0.72.77,2.26,1.67,3.11v39c-1.62,3.6-4.57,5.61-8,7.27-10.11,4.81-20.13,9.82-30.19,14.74-1,.48-1.89,1.21-3.07,1.16a1.32,1.32,0,0,0-1.31.57H288.2q0-9.68,0-19.37c7.92-3.89,15.82-7.81,23.78-11.63a2.9,2.9,0,0,0,1.81-3.09c-0.06-6.29,0-12.58,0-18.87C313.76,357.58,313.93,356.63,313.17,355.9Z"/><path class="j" d="M288.21,392.07q0,9.68,0,19.37h-2.44c-11.11-5.5-22.18-11.08-33.34-16.47-3.47-1.67-6.44-3.67-8.06-7.28V348.12l1.11-1.48,17.24,9.43c0,7.1,0,14.2-.1,21.3a2.9,2.9,0,0,0,1.82,3.08C272.38,384.27,280.29,388.19,288.21,392.07Z"/><path class="k" d="M288.21,392.07c-7.92-3.88-15.83-7.8-23.78-11.62a2.9,2.9,0,0,1-1.82-3.08c0.08-7.1.08-14.2,0.1-21.3a5,5,0,0,1,.55,0,3.62,3.62,0,0,0,.8.89c7.54,4.12,15.11,8.19,22.65,12.33,1.41,0.78,2.41.25,3.62-.45,7.42-4.34,14.87-8.6,22.32-12.89a4,4,0,0,0,.54-0.08c0.76,0.73.58,1.69,0.59,2.58,0,6.29,0,12.58,0,18.87a2.9,2.9,0,0,1-1.81,3.09C304,384.26,296.13,388.18,288.21,392.07Z"/><path class="l" d="M312.63,356c-7.44,4.29-14.9,8.55-22.32,12.89-1.2.7-2.21,1.23-3.62,0.45-7.53-4.14-15.1-8.21-22.65-12.33a3.64,3.64,0,0,1-.8-0.89l23.29-11.65a2.93,2.93,0,0,1,2.87-.21Q301,350.13,312.63,356Z"/><path class="m" d="M755.25,503.75H750L745,488.93h-15.9l-4.8,14.82h-5.1L734.37,458h5.76ZM744,485l-4.5-13.56c-1-3.12-1.74-6-2.34-8.7H737c-0.6,2.76-1.44,5.64-2.28,8.52L730.17,485H744Z"/><path class="m" d="M791,476a11.7,11.7,0,0,0-6.36-1.92c-3.6,0-5.52,2.22-5.52,4.86,0,2.82,1.86,4.14,6.06,5.94,5.28,2.16,8.34,4.92,8.34,9.84,0,5.82-4.44,9.66-11.58,9.66a17.32,17.32,0,0,1-8.58-2.22l1.38-3.84a15.54,15.54,0,0,0,7.38,2.22c4.38,0,6.54-2.34,6.54-5.28s-1.74-4.74-6.06-6.48c-5.52-2.22-8.34-5.28-8.34-9.24,0-5.1,4.08-9.3,10.68-9.3a14.48,14.48,0,0,1,7.5,2Z"/><path class="m" d="M824.31,502.37a23.72,23.72,0,0,1-10.26,2c-9.54,0-15.24-6.72-15.24-16.5,0-10.26,5.76-17.64,14.58-17.64,10.08,0,12.66,9.24,12.66,14.94,0,1.14-.06,2-0.12,2.76H803.67c0.06,9.06,5.22,12.48,11.1,12.48a20.67,20.67,0,0,0,8.58-1.68Zm-3.18-18.12c0.06-4.44-1.8-10.2-8.22-10.2-6,0-8.64,5.7-9.12,10.2h17.34Z"/><path class="m" d="M848.43,475.25a15.12,15.12,0,0,0-1.8-.12c-5.4,0-8.16,5.34-8.16,10.86v17.76h-5V480.83c0-3.48-.06-6.66-0.24-9.78h4.38l0.24,6.3H838c1.44-4.08,4.86-7,8.88-7a12.67,12.67,0,0,1,1.5.18v4.74Z"/><path class="m" d="M879.39,471.05L867,503.75h-4.68L850.23,471h5.34l6.54,19c1,2.94,1.92,5.7,2.64,8.4h0.18c0.72-2.7,1.68-5.46,2.7-8.4l6.48-19h5.28Z"/><path class="m" d="M887.49,465.29a3.39,3.39,0,0,1,.06-6.78A3.39,3.39,0,0,1,887.49,465.29ZM890,503.75h-5v-32.7h5v32.7Z"/><path class="m" d="M922,502.55a20.88,20.88,0,0,1-8.88,1.86c-9.36,0-15.54-6.66-15.54-16.68s6.66-17.46,16.74-17.46a18,18,0,0,1,7.86,1.74l-1.26,4a13.26,13.26,0,0,0-6.72-1.68c-7.56,0-11.52,6.06-11.52,13.08,0,7.92,4.74,12.9,11.34,12.9a16.38,16.38,0,0,0,7.08-1.62Z"/><path class="m" d="M952.1,502.37a23.72,23.72,0,0,1-10.26,2c-9.54,0-15.24-6.72-15.24-16.5,0-10.26,5.76-17.64,14.58-17.64,10.08,0,12.66,9.24,12.66,14.94,0,1.14-.06,2-0.12,2.76H931.46c0.06,9.06,5.22,12.48,11.1,12.48a20.67,20.67,0,0,0,8.58-1.68Zm-3.18-18.12c0.06-4.44-1.8-10.2-8.22-10.2-6,0-8.64,5.7-9.12,10.2h17.34Z"/><path class="m" d="M958.4,483.53h16.38v3.84H958.4v-3.84Z"/><path class="m" d="M1009.52,487.13c0,12.18-8,17.34-15.3,17.34-8.4,0-14.88-6.3-14.88-16.86,0-11.16,7-17.34,15.3-17.34C1003.58,470.27,1009.52,477.11,1009.52,487.13Zm-15.06-13c-7.08,0-10,7-10,13.26,0,7.26,4,13.14,9.9,13.14s10.08-5.88,10.08-13.26C1004.42,481.49,1001.6,474.17,994.46,474.17Z"/><path class="m" d="M1032,475.25a15.12,15.12,0,0,0-1.8-.12c-5.4,0-8.16,5.34-8.16,10.86v17.76h-5V480.83c0-3.48-.06-6.66-0.24-9.78h4.38l0.24,6.3h0.18c1.44-4.08,4.86-7,8.88-7a12.67,12.67,0,0,1,1.5.18v4.74Z"/><path class="m" d="M1040.3,465.29a3.39,3.39,0,0,1,.06-6.78A3.39,3.39,0,0,1,1040.3,465.29Zm2.52,38.46h-5v-32.7h5v32.7Z"/><path class="m" d="M1075.88,502.37a23.72,23.72,0,0,1-10.26,2c-9.54,0-15.24-6.72-15.24-16.5,0-10.26,5.76-17.64,14.58-17.64,10.08,0,12.66,9.24,12.66,14.94,0,1.14-.06,2-0.12,2.76h-22.26c0.06,9.06,5.22,12.48,11.1,12.48a20.67,20.67,0,0,0,8.58-1.68Zm-3.18-18.12c0.06-4.44-1.8-10.2-8.22-10.2-6,0-8.64,5.7-9.12,10.2h17.34Z"/><path class="m" d="M1111.22,503.75h-5V484.43c0-5.34-1.92-10-7.62-10-4.26,0-8.58,3.6-8.58,9.3v20h-5v-24.3c0-3.36-.12-5.82-0.24-8.46h4.44l0.3,5.34h0.12a11.67,11.67,0,0,1,10.5-6.06c4.08,0,11,2.46,11,13.56v19.92Z"/><path class="m" d="M1122.2,465.11l4.92-1.68v7.62h8.46V475h-8.46v18.9c0,4.14,1.26,6.42,4.44,6.42a9.73,9.73,0,0,0,3.36-.48l0.3,3.84a12.56,12.56,0,0,1-4.86.78c-7.92,0-8.16-7.2-8.16-10.68V475h-5v-3.9h5v-5.94Z"/><path class="m" d="M1165.28,502.37a23.72,23.72,0,0,1-10.26,2c-9.54,0-15.24-6.72-15.24-16.5,0-10.26,5.76-17.64,14.58-17.64,10.08,0,12.66,9.24,12.66,14.94,0,1.14-.06,2-0.12,2.76h-22.26c0.06,9.06,5.22,12.48,11.1,12.48a20.67,20.67,0,0,0,8.58-1.68Zm-3.18-18.12c0.06-4.44-1.8-10.2-8.22-10.2-6,0-8.64,5.7-9.12,10.2h17.34Z"/><path class="m" d="M1200.86,495.65c0,2.64.12,5.88,0.24,8.1h-4.44l-0.24-5.58h-0.18a11.57,11.57,0,0,1-10.68,6.3c-7.56,0-13.44-6.54-13.44-16.62,0-11,6.48-17.52,14.1-17.52,4.8,0,8,2.34,9.54,5h0.12V455.75h5v39.9Zm-5-11.52c0-6.54-4.62-9.78-8.82-9.78-6.18,0-9.84,5.76-9.84,13.26,0,6.9,3.24,12.78,9.66,12.78,5.4,0,9-4.74,9-10v-6.3Z"/><path class="m" d="M1274.23,458.09l-12.6,45.66h-5.1l-5.94-24.42a132.22,132.22,0,0,1-3.06-15.12h-0.12a132.71,132.71,0,0,1-3.6,15.06l-6.6,24.48h-5.1l-11.34-45.66h5.28l5.58,23.76c1.32,5.76,2.58,11.28,3.36,15.84h0.18c0.66-4.62,2.16-10,3.66-15.9l6.3-23.7h5l5.76,23.64c1.26,5.46,2.58,10.92,3.24,15.9h0.18c0.9-5.22,2.16-10.26,3.6-15.9l6.18-23.64h5.1Z"/><path class="m" d="M1303,502.37a23.72,23.72,0,0,1-10.26,2c-9.54,0-15.24-6.72-15.24-16.5,0-10.26,5.76-17.64,14.58-17.64,10.08,0,12.66,9.24,12.66,14.94,0,1.14-.06,2-0.12,2.76h-22.26c0.06,9.06,5.22,12.48,11.1,12.48a20.67,20.67,0,0,0,8.58-1.68Zm-3.18-18.12c0.06-4.44-1.8-10.2-8.22-10.2-6,0-8.64,5.7-9.12,10.2h17.34Z"/><path class="m" d="M1317.25,476.33c2-3.78,5.76-6.06,10.86-6.06,7.74,0,13.2,6.66,13.2,16.74,0,11.88-7.26,17.46-14,17.46a11.17,11.17,0,0,1-10.56-6.12h-0.18l-0.3,5.4h-4.32c0.12-2.16.24-5.46,0.24-8.1v-39.9h5v20.58h0.12ZM1317.13,491a9.23,9.23,0,0,0,9.18,9.42c6.36,0,9.9-5.46,9.9-13.2,0-6.84-3.36-12.84-9.72-12.84-5.7,0-9.36,5.34-9.36,10.14V491Z"/><path class="m" d="M1381.57,501.89a37.3,37.3,0,0,1-13,2.34c-17.94,0-22.2-13.38-22.2-23,0-13.92,9.06-23.58,23.4-23.58a26.52,26.52,0,0,1,10.56,1.92l-1.32,4.14a21.54,21.54,0,0,0-9.36-1.86c-10.8,0-18.06,7-18.06,19.08,0,12.36,6.9,19.26,17.34,19.26,3.84,0,6.42-.6,7.74-1.32V484.19h-9.24v-4h14.16v21.72Z"/><path class="m" d="M1414.27,503.75h-23.88V458h5v41.46h18.9v4.26Z"/><path class="m" d="M1435.09,471.05c0-4.08,0-9.42,3.6-13.08a10.78,10.78,0,0,1,7.56-2.94,12.13,12.13,0,0,1,4.86,1l-0.84,3.9a9.42,9.42,0,0,0-3.78-.78c-5.16,0-6.42,4.8-6.42,10.08v1.86H1448V475h-7.92v28.8h-5V475h-4.5v-3.9h4.5Z"/><path class="m" d="M1468.09,475.25a15.12,15.12,0,0,0-1.8-.12c-5.4,0-8.16,5.34-8.16,10.86v17.76h-5V480.83c0-3.48-.06-6.66-0.24-9.78h4.38l0.24,6.3h0.18c1.44-4.08,4.86-7,8.88-7a12.67,12.67,0,0,1,1.5.18v4.74Z"/><path class="m" d="M1495.33,496a45.77,45.77,0,0,0,.48,7.8h-4.56l-0.48-4.2h-0.18a11.37,11.37,0,0,1-9.66,4.92,9.07,9.07,0,0,1-9.54-9.3c0-7.86,6.84-12.12,19-12.06,0-2.76,0-9-7.44-9a14.15,14.15,0,0,0-8,2.34l-1.2-3.42a18.6,18.6,0,0,1,10-2.76c9.24,0,11.64,6.54,11.64,13V496Zm-4.92-9.18c-6.18,0-13.92.9-13.92,7.8,0,4.2,2.64,6.06,5.64,6.06a8,8,0,0,0,8.28-7.68v-6.18Z"/><path class="m" d="M1549.45,503.75h-4.92v-18.9c0-6.36-2.28-10.44-7.2-10.44-4,0-7.68,3.78-7.68,8.76v20.58h-4.92V483.59c0-5.22-2.22-9.18-6.84-9.18-4.26,0-8,4.2-8,9.3v20h-4.92v-24.3c0-3.36-.12-5.76-0.24-8.46h4.38l0.3,5.28h0.18a10.89,10.89,0,0,1,10-6,9.34,9.34,0,0,1,8.94,6.54h0.12c2.16-3.9,5.46-6.54,10.5-6.54,4,0,10.38,2.58,10.38,13.8v19.68Z"/><path class="m" d="M1582.27,502.37a23.72,23.72,0,0,1-10.26,2c-9.54,0-15.24-6.72-15.24-16.5,0-10.26,5.76-17.64,14.58-17.64,10.08,0,12.66,9.24,12.66,14.94,0,1.14-.06,2-0.12,2.76h-22.26c0.06,9.06,5.22,12.48,11.1,12.48a20.67,20.67,0,0,0,8.58-1.68Zm-3.18-18.12c0.06-4.44-1.8-10.2-8.22-10.2-6,0-8.64,5.7-9.12,10.2h17.34Z"/><path class="m" d="M1633.45,471l-10.38,32.76h-4.44l-5.16-16.44a99.13,99.13,0,0,1-2.88-10.8h-0.18a84.58,84.58,0,0,1-3,10.86l-5.46,16.38h-4.5L1587.79,471h5.16l4.56,17.16c0.9,3.66,1.8,7,2.46,10.38h0.18c0.72-3.24,1.8-6.78,2.88-10.32l5.46-17.22h4.32l5.22,16.92c1.14,3.84,2.1,7.32,2.88,10.62h0.18c0.6-3.24,1.5-6.66,2.58-10.56l4.8-17h5Z"/><path class="m" d="M1667.23,487.13c0,12.18-8,17.34-15.3,17.34-8.4,0-14.88-6.3-14.88-16.86,0-11.16,7-17.34,15.3-17.34C1661.29,470.27,1667.23,477.11,1667.23,487.13Zm-15.06-13c-7.08,0-10,7-10,13.26,0,7.26,4,13.14,9.9,13.14s10.08-5.88,10.08-13.26C1662.13,481.49,1659.31,474.17,1652.17,474.17Z"/><path class="m" d="M1689.73,475.25a15.12,15.12,0,0,0-1.8-.12c-5.4,0-8.16,5.34-8.16,10.86v17.76h-5V480.83c0-3.48-.06-6.66-0.24-9.78h4.38l0.24,6.3h0.18c1.44-4.08,4.86-7,8.88-7a12.67,12.67,0,0,1,1.5.18v4.74Z"/><path class="m" d="M1720.93,503.75h-6.12l-11.28-16.14-3,3.42v12.72h-5v-48h5v30.54h0.12c0.78-1.14,1.92-2.58,2.82-3.66l9.78-11.58h6l-12.3,13.5Z"/><path class="m" d="M1724,500.69a3.62,3.62,0,0,1,3.6-3.9c2.1,0,3.54,1.62,3.54,3.9A3.58,3.58,0,1,1,1724,500.69Z"/></svg>